<svg width="110" height="65" viewBox="0 0 110 65" fill="none" xmlns="http://www.w3.org/2000/svg">
<path d="M31.8495 33.6159C30.2719 30.8322 29.0664 28.9015 28.1735 27.5845C33.576 25.5341 37.3711 20.7898 37.3711 14.5789C37.3562 3.56374 28.3818 0.00178486 19.6009 0.00178486H0V44.8256H9.18279V28.677H13.6477C14.3621 28.677 15.0467 28.677 15.7462 28.707C16.8326 28.7668 18.6781 29.2607 20.0325 31.4607C21.4464 33.7955 22.1905 35.3969 24.3039 38.9289C26.6256 42.8051 28.9771 45.5439 33.0997 45.5439C38.3088 45.5439 39.0083 40.4554 39.0083 40.4554C35.7489 39.3928 33.4123 36.3547 31.8495 33.6009V33.6159ZM20.5831 21.4334H9.18279V8.03864H20.5831C24.7801 8.03864 27.8014 10.3434 27.8014 14.7585C27.8014 18.9041 24.7801 21.4184 20.5831 21.4184V21.4334ZM49.9175 0.00178486V44.8256H59.1003V6.85631C59.0854 -0.29754 49.9175 0.00178486 49.9175 0.00178486ZM100.802 0.00178486V25.2498C100.802 32.1642 98.5699 36.9833 91.2028 36.9833C83.8357 36.9833 81.7968 32.1642 81.7968 25.2498V6.85631C81.7968 -0.29754 72.6289 0.00178486 72.6289 0.00178486V25.9083C72.6289 37.3125 77.8974 45.5439 91.2177 45.5439C104.538 45.5439 110 36.4445 110 25.9083V0.00178486H100.817H100.802ZM0.0446489 55.706C0.193479 55.691 0.297659 55.6761 0.386957 55.6761C0.937627 55.6761 1.2204 55.9604 1.2204 56.5291V59.5523H5.5067V55.706C5.65553 55.691 5.75971 55.6761 5.84901 55.6761C6.39967 55.6761 6.68245 55.9604 6.68245 56.5291V64.7905H5.5067V60.585H1.20552V64.7905H0.0446489V55.706ZM16.3415 60.2108C16.3415 61.6925 15.9992 62.8598 15.3146 63.7129C14.63 64.566 13.6626 65 12.3975 65C11.5641 65 10.8646 64.8054 10.299 64.4163C9.73346 64.0272 9.28697 63.4734 9.00419 62.7551C8.70653 62.0367 8.5577 61.1836 8.5577 60.2258C8.5577 59.2679 8.72142 58.4448 9.04884 57.7264C9.37627 57.008 9.83764 56.4693 10.4181 56.0951C11.0134 55.721 11.7129 55.5414 12.5166 55.5414C13.3203 55.5414 14.0346 55.7359 14.6002 56.1101C15.1657 56.4842 15.5973 57.023 15.895 57.7264C16.1927 58.4298 16.3415 59.253 16.3415 60.2108ZM15.1211 60.2108C15.1211 59.0285 14.8978 58.1305 14.4514 57.5169C14.0049 56.8883 13.35 56.574 12.5017 56.574C11.6534 56.574 10.9539 56.8883 10.4925 57.5019C10.0311 58.1155 9.80787 59.0285 9.80787 60.2108C9.80787 61.3931 10.0311 62.3211 10.4925 62.9646C10.9539 63.6081 11.6087 63.9374 12.4719 63.9374C13.3351 63.9374 13.99 63.6081 14.4514 62.9646C14.9127 62.3061 15.136 61.3931 15.136 60.2108H15.1211ZM19.705 56.7387H16.8475C16.8178 56.6189 16.8029 56.4842 16.8029 56.3645C16.8029 56.1699 16.8773 56.0203 17.0261 55.9005C17.1749 55.7808 17.3833 55.721 17.6214 55.721H23.8127C23.8276 55.8407 23.8425 55.9454 23.8425 56.0352C23.8425 56.2597 23.7681 56.4244 23.6193 56.5591C23.4704 56.6938 23.277 56.7536 23.0239 56.7536H20.8957V64.8054H19.705V56.7536V56.7387ZM25.0331 55.706H30.2422C30.2571 55.7958 30.272 55.8856 30.272 55.9903C30.272 56.4842 30.0041 56.7237 29.4534 56.7237H26.2089V59.5224H29.2748V60.57H26.2089V63.7728H29.632C29.8999 63.7728 30.1082 63.8326 30.2571 63.9673C30.4059 64.0871 30.4654 64.2816 30.4654 64.5061C30.4654 64.5959 30.4654 64.6857 30.4654 64.7905H25.048V55.721L25.0331 55.706ZM31.8942 55.706C32.043 55.691 32.1472 55.6761 32.2365 55.6761C32.7872 55.6761 33.0699 55.9604 33.0699 56.5291V63.7578H36.1954C36.4633 63.7578 36.6567 63.8177 36.7907 63.9524C36.9246 64.0871 36.9991 64.2517 36.9991 64.4762C36.9991 64.5809 36.9991 64.6857 36.9991 64.7905H31.8942V55.706ZM42.595 57.1876C42.3569 57.008 42.089 56.8584 41.7616 56.7536C41.4342 56.6489 41.1068 56.589 40.7793 56.589C40.2435 56.589 39.8268 56.7087 39.544 56.9482C39.2613 57.1876 39.1124 57.5169 39.1124 57.9509C39.1124 58.1904 39.172 58.4149 39.2761 58.5945C39.3803 58.7741 39.5738 58.9537 39.8417 59.1033C40.0947 59.253 40.5263 59.4176 41.0919 59.5972C41.9104 59.8666 42.5057 60.2108 42.8927 60.6299C43.2648 61.0639 43.4583 61.6027 43.4583 62.2313C43.4583 63.0843 43.1904 63.7728 42.6397 64.2517C42.089 64.7456 41.3449 64.985 40.4072 64.985C39.9161 64.985 39.4547 64.9252 39.0231 64.8204C38.5915 64.7156 38.2641 64.566 38.0111 64.3864C37.7878 64.2367 37.6688 64.0721 37.6688 63.8775C37.6688 63.7877 37.7134 63.668 37.7878 63.5183C37.8623 63.3687 37.9664 63.219 38.0706 63.0694C38.4129 63.3537 38.785 63.5632 39.1868 63.7279C39.5887 63.8775 39.9905 63.9524 40.3924 63.9524C40.9877 63.9524 41.4342 63.8177 41.7616 63.5333C42.0741 63.2639 42.2379 62.8748 42.2379 62.3809C42.2379 62.0816 42.1783 61.8272 42.0741 61.6027C41.97 61.3931 41.7914 61.1986 41.5532 61.034C41.3151 60.8693 40.943 60.7197 40.4668 60.57C39.7971 60.3754 39.2761 60.1659 38.9338 59.9414C38.5915 59.7169 38.3236 59.4475 38.1599 59.1332C37.9813 58.819 37.9069 58.4448 37.9069 58.0108C37.9069 57.487 38.026 57.038 38.2641 56.6638C38.5022 56.2897 38.8445 56.0053 39.2761 55.8108C39.7077 55.6162 40.2138 55.5114 40.7793 55.5114C41.1365 55.5114 41.5086 55.5563 41.8807 55.6461C42.2527 55.7359 42.5802 55.8556 42.8183 56.0053C42.9969 56.1101 43.1308 56.2148 43.2052 56.3196C43.2797 56.4244 43.3243 56.5291 43.3243 56.6489C43.3243 56.8434 43.1755 57.0829 42.8778 57.3822C42.8481 57.3523 42.8034 57.3074 42.7439 57.2625C42.6992 57.2176 42.6397 57.1727 42.5802 57.1278L42.595 57.1876ZM53.1024 63.5333C52.6559 64.0272 52.2094 64.3864 51.7481 64.6109C51.3016 64.8354 50.8104 64.9551 50.2895 64.9551C49.6793 64.9551 49.1584 64.8503 48.7268 64.6258C48.2952 64.4014 47.9678 64.0871 47.7297 63.683C47.5064 63.2789 47.3874 62.8 47.3874 62.2762C47.3874 61.5727 47.5808 60.9591 47.9678 60.4353C48.3548 59.9115 48.9203 59.4924 49.6347 59.1931C49.4114 58.9088 49.2477 58.6394 49.1733 58.3999C49.084 58.1604 49.0394 57.8911 49.0394 57.5917C49.0394 57.1876 49.1436 56.8434 49.3519 56.5291C49.5603 56.2148 49.843 55.9754 50.2002 55.8108C50.5574 55.6461 50.9444 55.5563 51.3611 55.5563C52.016 55.5563 52.5518 55.706 52.9982 56.0053C53.1917 56.155 53.2959 56.3196 53.2959 56.4992C53.2959 56.6638 53.162 56.9033 52.8941 57.2026H52.7601C52.522 56.9781 52.2987 56.8135 52.1053 56.7237C51.8969 56.6339 51.6737 56.574 51.4206 56.574C51.0635 56.574 50.7807 56.6788 50.5723 56.8734C50.3491 57.0679 50.2449 57.3373 50.2449 57.6666C50.2449 57.8611 50.2895 58.0557 50.3788 58.2502C50.4681 58.4448 50.617 58.6843 50.8253 58.9686C51.0635 59.253 51.3016 59.5673 51.5546 59.8816C51.8076 60.1958 52.0755 60.5251 52.3285 60.8394C52.5964 61.1537 52.8345 61.468 53.0727 61.7523C53.3405 61.0938 53.4745 60.3904 53.4894 59.6421C53.4894 59.3128 53.4894 59.0734 53.4894 58.9237H55.6623V59.8067H54.4716C54.427 60.8544 54.1889 61.7972 53.7722 62.6353L55.4986 64.7605C55.2605 64.8653 55.0372 64.9252 54.8437 64.9252C54.4865 64.9252 54.1889 64.7905 53.9507 64.5211L53.1024 63.5483V63.5333ZM50.23 59.9863C49.6793 60.2258 49.2477 60.5251 48.965 60.8993C48.6822 61.2734 48.5334 61.6925 48.5334 62.1714C48.5334 62.6952 48.6971 63.1143 49.0245 63.4435C49.3519 63.7728 49.7835 63.9374 50.3193 63.9374C50.736 63.9374 51.1081 63.8476 51.4355 63.653C51.763 63.4585 52.0904 63.1592 52.4178 62.7251L50.2151 59.9863H50.23ZM59.8742 55.7359C60.4248 55.6611 61.1392 55.6162 61.9876 55.6162C63.1931 55.6162 64.0712 55.8257 64.6218 56.2298C65.1725 56.6489 65.4553 57.2924 65.4553 58.2053C65.4553 58.6693 65.366 59.0734 65.2023 59.4475C65.0386 59.8067 64.8004 60.121 64.5028 60.3605C64.2051 60.5999 63.8628 60.7646 63.4758 60.8544L65.9464 64.7905C65.7976 64.8653 65.5892 64.9102 65.3064 64.9102C64.9046 64.9102 64.5772 64.7306 64.3539 64.3864L62.2554 61.0789H61.0499V64.7905H59.8742V55.7359ZM62.0024 60.0612C63.4907 60.0612 64.2349 59.4625 64.2349 58.2652C64.2349 57.6815 64.0712 57.2475 63.7289 56.9931C63.4014 56.7387 62.821 56.604 62.0173 56.604C61.6006 56.604 61.2732 56.6189 61.0499 56.6638V60.0612H62.0024ZM67.3603 55.706H72.5693C72.5842 55.7958 72.5991 55.8856 72.5991 55.9903C72.5991 56.4842 72.3312 56.7237 71.7805 56.7237H68.5361V59.5224H71.6019V60.57H68.5361V63.7728H71.9591C72.227 63.7728 72.4354 63.8326 72.5842 63.9673C72.733 64.0871 72.7926 64.2816 72.7926 64.5061C72.7926 64.5959 72.7926 64.6857 72.7926 64.7905H67.3752V55.721L67.3603 55.706ZM78.463 57.1727C78.2249 56.9931 77.957 56.8434 77.6295 56.7387C77.3021 56.6339 76.9747 56.574 76.6473 56.574C76.1115 56.574 75.6948 56.6938 75.412 56.9332C75.1292 57.1727 74.9804 57.5019 74.9804 57.936C74.9804 58.1754 75.0399 58.3999 75.1441 58.5795C75.2483 58.7591 75.4417 58.9387 75.7096 59.0884C75.9627 59.238 76.3943 59.4026 76.9598 59.5822C77.7784 59.8516 78.3737 60.1959 78.7607 60.6149C79.1327 61.0489 79.3262 61.5877 79.3262 62.2163C79.3262 63.0694 79.0583 63.7578 78.5076 64.2367C77.957 64.7306 77.2128 64.9701 76.2752 64.9701C75.7841 64.9701 75.3227 64.9102 74.8911 64.8054C74.4595 64.7007 74.132 64.551 73.879 64.3714C73.6558 64.2218 73.5367 64.0571 73.5367 63.8626C73.5367 63.7728 73.5814 63.653 73.6558 63.5034C73.7302 63.3537 73.8344 63.2041 73.9386 63.0544C74.2809 63.3388 74.653 63.5483 75.0548 63.7129C75.4566 63.8626 75.8585 63.9374 76.2603 63.9374C76.8556 63.9374 77.3021 63.8027 77.6295 63.5183C77.9421 63.249 78.1058 62.8598 78.1058 62.3659C78.1058 62.0666 78.0463 61.8122 77.9421 61.5877C77.8379 61.3782 77.6593 61.1836 77.4212 61.019C77.1831 60.8544 76.811 60.7047 76.3347 60.555C75.665 60.3605 75.1441 60.151 74.8018 59.9265C74.4595 59.702 74.1916 59.4326 74.0279 59.1183C73.8493 58.804 73.7749 58.4298 73.7749 57.9958C73.7749 57.472 73.8939 57.023 74.132 56.6489C74.3702 56.2747 74.7125 55.9903 75.1441 55.7958C75.5757 55.6012 76.0817 55.4965 76.6473 55.4965C77.0045 55.4965 77.3765 55.5414 77.7486 55.6312C78.1207 55.721 78.4481 55.8407 78.6862 55.9903C78.8648 56.0951 78.9988 56.1999 79.0732 56.3046C79.1476 56.4094 79.1923 56.5142 79.1923 56.6339C79.1923 56.8285 79.0434 57.0679 78.7458 57.3672C78.716 57.3373 78.6714 57.2924 78.6118 57.2475C78.5672 57.2026 78.5076 57.1577 78.4481 57.1128L78.463 57.1727ZM88.4792 60.1959C88.4792 61.6775 88.1369 62.8449 87.4523 63.6979C86.7677 64.551 85.8003 64.985 84.5352 64.985C83.7018 64.985 83.0023 64.7905 82.4367 64.4014C81.8712 64.0122 81.4247 63.4585 81.1419 62.7401C80.8443 62.0217 80.6954 61.1687 80.6954 60.2108C80.6954 59.253 80.8591 58.4298 81.1866 57.7115C81.514 56.9931 81.9754 56.4543 82.5558 56.0801C83.1511 55.706 83.8506 55.5264 84.6543 55.5264C85.458 55.5264 86.1724 55.721 86.7379 56.0951C87.3035 56.4693 87.7351 57.0081 88.0327 57.7115C88.3304 58.4149 88.4792 59.238 88.4792 60.1959ZM87.2588 60.1959C87.2588 59.0135 87.0356 58.1155 86.5891 57.5019C86.1426 56.8734 85.4877 56.5591 84.6394 56.5591C83.7911 56.5591 83.0916 56.8734 82.6302 57.487C82.1689 58.1006 81.9456 59.0135 81.9456 60.1959C81.9456 61.3782 82.1689 62.3061 82.6302 62.9496C83.0916 63.5932 83.7464 63.9224 84.6097 63.9224C85.4729 63.9224 86.1277 63.5932 86.5891 62.9496C87.0505 62.2911 87.2737 61.3782 87.2737 60.1959H87.2588ZM90.3694 55.721C90.92 55.6461 91.6344 55.6012 92.4827 55.6012C93.6883 55.6012 94.5664 55.8108 95.117 56.2148C95.6677 56.6339 95.9505 57.2774 95.9505 58.1904C95.9505 58.6543 95.8612 59.0584 95.6975 59.4326C95.5338 59.7918 95.2956 60.1061 94.998 60.3455C94.7003 60.585 94.358 60.7496 93.971 60.8394L96.4416 64.7755C96.2928 64.8503 96.0844 64.8952 95.8017 64.8952C95.3998 64.8952 95.0724 64.7156 94.8491 64.3714L92.7506 61.0639H91.5451V64.7755H90.3694V55.721ZM92.4976 60.0462C93.9859 60.0462 94.7301 59.4475 94.7301 58.2502C94.7301 57.6666 94.5664 57.2325 94.2241 56.9781C93.8966 56.7237 93.3162 56.589 92.5125 56.589C92.0958 56.589 91.7684 56.604 91.5451 56.6489V60.0462H92.4976ZM99.5373 56.7237H96.6797C96.65 56.604 96.6351 56.4693 96.6351 56.3495C96.6351 56.155 96.7095 56.0053 96.8583 55.8856C97.0072 55.7659 97.2155 55.706 97.4537 55.706H103.645C103.66 55.8257 103.675 55.9305 103.675 56.0203C103.675 56.2448 103.6 56.4094 103.451 56.5441C103.303 56.6788 103.109 56.7387 102.856 56.7387H100.728V64.7905H99.5373V56.7387V56.7237ZM109.107 57.1577C108.869 56.9781 108.601 56.8285 108.274 56.7237C107.946 56.6189 107.619 56.5591 107.291 56.5591C106.756 56.5591 106.339 56.6788 106.056 56.9183C105.773 57.1577 105.624 57.487 105.624 57.921C105.624 58.1604 105.684 58.3849 105.788 58.5645C105.892 58.7441 106.086 58.9237 106.354 59.0734C106.607 59.223 107.038 59.3877 107.604 59.5673C108.422 59.8367 109.018 60.1809 109.405 60.5999C109.777 61.034 109.97 61.5727 109.97 62.2013C109.97 63.0544 109.702 63.7428 109.152 64.2218C108.601 64.7156 107.857 64.9551 106.919 64.9551C106.428 64.9551 105.967 64.8952 105.535 64.7905C105.104 64.6857 104.776 64.536 104.523 64.3565C104.3 64.2068 104.181 64.0422 104.181 63.8476C104.181 63.7578 104.225 63.6381 104.3 63.4884C104.374 63.3387 104.478 63.1891 104.583 63.0394C104.925 63.3238 105.297 63.5333 105.699 63.6979C106.101 63.8476 106.503 63.9224 106.904 63.9224C107.5 63.9224 107.946 63.7877 108.274 63.5034C108.586 63.234 108.75 62.8449 108.75 62.351C108.75 62.0517 108.69 61.7972 108.586 61.5727C108.482 61.3632 108.303 61.1687 108.065 61.004C107.827 60.8394 107.455 60.6897 106.979 60.5401C106.309 60.3455 105.788 60.136 105.446 59.9115C105.104 59.687 104.836 59.4176 104.672 59.1033C104.493 58.789 104.419 58.4149 104.419 57.9809C104.419 57.457 104.538 57.008 104.776 56.6339C105.014 56.2597 105.357 55.9754 105.788 55.7808C106.22 55.5863 106.726 55.4815 107.291 55.4815C107.648 55.4815 108.021 55.5264 108.393 55.6162C108.765 55.706 109.092 55.8257 109.33 55.9754C109.509 56.0801 109.643 56.1849 109.717 56.2897C109.792 56.3944 109.836 56.4992 109.836 56.6189C109.836 56.8135 109.687 57.0529 109.39 57.3523C109.36 57.3223 109.315 57.2774 109.256 57.2325C109.211 57.1876 109.152 57.1427 109.092 57.0979L109.107 57.1577Z" fill="#E4002B"/>
</svg>
